<?xml version="1.0" encoding="UTF-8"?>
<svg id="Layer_1" data-name="Layer 1" xmlns="http://www.w3.org/2000/svg" viewBox="0 0 397 419.52">
  <defs>
    <style>
      .cls-1 {
        fill: #fecc35;
      }

      .cls-2 {
        fill: #026735;
      }
    </style>
  </defs>
  <path class="cls-1" d="M189.52,155.52c.65.33.65.67,0,1v-1Z"/>
  <g>
    <path class="cls-2" d="M74.02,198.52l55.99,101c4.36-12.37,9.43-24.73,14.83-36.68,3.44-7.6,10.76-25.83,15.15-31.59,2.79-3.66,14.81-12.8,19.13-16.13,34.55-26.65,77.78-46.08,121.89-47.59l-20.02,9.47c-19.39,10.43-37.78,22.54-55,36.23l.04,180.77c.72,3.74,16.04,18.03,19.49,22.51.78,1.01,1.93,1.26,1.49,3.01h-94l23-22.5v-134.5c-25.74,29.05-45.45,65.02-59.02,101.48-2.86,7.68-4.67,18.42-7.79,25.21s-12.6,14.37-17.18,20.31c3.11-18.98,11.16-36.86,15.82-55.25-16.93-29.26-32.04-59.72-49.31-88.78-.65-1.09-1.02-2.75-2.52-2.98v131.5l24,24.5H0l22.05-22.45c2.18-57.39.36-115.41.92-173.03-6.33-9.04-16.02-15.77-22.98-24.52h74.02Z"/>
    <path class="cls-1" d="M190.03,154.51c15.88-40.8,49.14-71.82,86.97-92.52,32.24-17.64,68.34-27.67,99.33-47.67,6.98-4.51,13.52-10.36,20.67-14.32-10.7,19.81-20.98,39.98-33,58.99-58.87,18.33-111.57,39.4-158,81-4.26,3.82-8.15,8.94-12.48,12.52-1.13.93-1.61,2.43-3.5,1.99h.01Z"/>
    <path class="cls-2" d="M347.01,90.52l-23.03,42.46c-49.35,9.62-96.14,25.66-135.86,57.14l-19.1,15.39c-.85-.9,10.31-17.63,11.77-19.72,13.81-19.68,30.89-35.99,51.31-48.69,35.35-22,75.27-34.62,114.91-46.58h0Z"/>
  </g>
</svg>