<?xml version="1.0" encoding="UTF-8"?>
<svg id="Layer_1" xmlns="http://www.w3.org/2000/svg" version="1.1" viewBox="0 0 1408 736">
  <!-- Generator: Adobe Illustrator 29.3.0, SVG Export Plug-In . SVG Version: 2.1.0 Build 146)  -->
  <defs>
    <style>
      .st0 {
        fill: #89c56b;
      }

      .st1 {
        fill: #cfa640;
      }

      .st2 {
        fill: #fbfbfb;
      }

      .st3 {
        fill: #599e54;
      }

      .st4 {
        fill: #135739;
      }
    </style>
  </defs>
  <path class="st4" d="M815,374c-16.9,8.4-19.2,4.8-36.5,4-5.6-.3-11.5.4-17,0-51.6-3.4-106.5-12.4-152.5-36.5,2.7-1,5.4.6,8.4.5,7.9-.3,18.5-4.1,21.6-12-14.4-1.3-28.7-3.5-42.8-6.7-22.8-5.2-60.6-20.1-67.7-45.3s-1-4.2-.4-4.9c1-1.2,25.8-4.4,30.1-5.4,24.3-5.2,55.8-13.5,77.5-25.5,7-3.9,4-5.4,6.4-11.4,6.4-15.4,10.6-27.2,21.5-40.7,19.4-24,48.7-41.4,77.1-52.9s51.6-14.7,77.3-24.7c35.7-14,77.3-21.4,114.7-10.2,9.9,16.6,23.1,37.5,44.3,38.7,1.4-4.5-2.9-24.6,0-26.6,5.7-4,28,11,29.9,17.3s-1.9,13.7-3.1,18.5c-5.8,23.3-12.3,48.9-19.2,71.8s-9.9,31.9-22,44-8.4,5.6-9.1,7c-1.2,2.2,3.2,9.1,2.4,13.3s-7.1,7.3-7.6,10.4,24.7,33.2,25.8,41.9c1.5,12.2-17.5,12.2-18.1,17.9-.9,9,6.5,14.3,6.9,18.2s-4.4,7.3-4.6,9,2.4,5.6,2.8,6.6,1.8.6,2,1.4c1.5,6.3-2.9,7.9-4.3,12.5-3.9,13.3,11.7,22.9,5.5,38.5-5,12.5-20.7,10.9-31.7,10.3s-39.3-8.7-49.2.4c-6,5.5-8,25.5-9.4,26.7s-3.1-.7-4-1.4c-2.1-1.6-9.7-11.1-10.9-13.6l-4.4-4.9c-7.5-18.3-17.2-35.5-29-51.5-6.5-10.2-12.7-21.5-9.1-33.8l-1.5-.7Z"/>
  <path class="st1" d="M777,386l-14.8,3.7c-55.5,8.6-116.4,8.1-169.6-7.8-2.7-.8-6.9-2.2-9.6-1.3,57.1,33.7,125.3,38,188.2,55.8,50.6,14.3,88.3,33.4,117.2,78.8,3.6,5.7,8.2,13.1,10.8,19.2s1.8,2.9-.2,2.7c-.6-2.2-3.8-4.5-5.5-6-101.1-81.9-234.2-57.8-348.8-111.2-43.4-20.2-77.1-54.7-121.1-70.9-69.5-25.6-151.2-17.8-220.5,4.6s-15,6.7-23,7.4l18.3-10.2c83.2-38.1,180.7-52.2,267.7-17.8.7-2.1-2.3-3.1-3.7-3.8-73.5-35-146.8-36.5-226.8-16.1-21.9,5.6-41.8,14.7-62.9,21.1-1,.3-3,1.7-3.7.3,17-11.5,36.6-19.9,55.7-27.3,84.4-32.3,191.2-44.5,276.2-8.7,34.8,14.7,65,38.1,99.4,53.6,54.6,24.6,117.2,31.6,176.7,33.8Z"/>
  <path class="st1" d="M893,542c.2,1.9-1.8.5-2.8.3-15.6-4.4-30.1-10.2-46.2-13.8-62-13.7-126.6-9-189.2-18.8-77.1-12-158.4-47.7-196.8-119.2l30.7,24.3c104.2,78.2,246.6,48.8,360,102,15.4,7.2,29.6,16.8,44.3,25.2Z"/>
  <path class="st0" d="M815,374c.3-.1.1-1.6,2-1,.3,4.7.3,10.8,1.1,15.4,2.3,12.5,22.9,38.3,30.1,51.9,4.3,8.2,7,16.8,10.8,24.7-8.7-4-15.5-11.8-24.5-16l-15-32c-1.1,7.7.2,15.5-2,23-50.7-22.4-107.2-24.8-160.5-38,.3-1.8,5.1-1.1,6.5-1,40.1,2.7,87.3,9.9,126-4,11.9-4.3,18.2-8.1,24.9-19.1s2.7-3.3.6-3.9Z"/>
  <path class="st1" d="M167.5,335c.6.3.6.7,0,1v-1Z"/>
  <path class="st2" d="M948,273c.7,1.9,2.3,7.7,1.9,9.3-.7,2.6-4.3,2.3-5.8,4.3s-3.1,8-2.7,9.4l26.4,38.6c5.6,17.2-17.5,7-26.1,8.6-4.2.8-6,3.7-9.2,5.8-5-1.6-4.2-4.5-4.6-8.5-.6-6.5-3.8.6-4,4s.9,5.1,1,7.5l1.9,1.7c-1.9,6.9,3.6,8.2,16.5,3.6,4.1-.9,5.7-.7,6.7,3.7.4,2.4-.3,5.4,1,8,1.2.8,5.5-3.5,6.8,2.7s-7.1,1.7-11.1,2.5c-6.9,1.5-17.1,10.5-25.2,10.8l-2-5c-3.2,4-6.2,8.7-6.5,14,2.9.2,2.2-2.7,4.9-3.6,4.7-1.5,20.4-4,25.6-4.4s11.2-1.7,14.5,5l1,1c.1.6,0,1.4,0,2-5,.9-10,1.4-15.2,1.4-1.7,2-4.5,3.3-8.3,4-13.5,4.1,1.4,3.7,7.3,3.6l1.2,2c-1,2.1-2.8,3.8-3,6,.7.6,8.5-2.4,11.7.3s5.6,13.3,6.3,15.7c1,6.3,1.3,11.8-6.1,13.2-13.9,2.8-78.1-23.6-84.6-36.6s-.2-25.1,2.2-28.5l2.4-1.1c2,3.8,5.5,7.3,5,12,3.3.7,1.6-2.1,2-4,1.3-12.5,0-24.3-3.8-35.2-7.1-10.8-16.2-20-27.1-27.7-2.8-2-4.1-4.5-3.9-7.3,8.5-11.3,15.2-23.5,20.1-36.6,6.1-7,31.2-8,39.5-8.2,14.1-.4,30.8.2,43.3,6.1Z"/>
  <path class="st0" d="M994.7,142.7c5.8-6.4-1.4-15.9-.7-16.7,2.7.2,8.4,6.3,8.7,8.6s-3.2,16.1-4.5,19.1c-5.2,11.7-22.8,9.9-33.1,6.8-11.4-3.5-21.3-12.1-29-21s-11.6-18.1-16.2-19.8c-13.3-4.9-39.7-2.6-53.8-.2-95.7,16.3-138.9,99.7-220.6,139.4s-58.4,22.8-87.2,27.8-14,2.9-16.5,2.1-6.2-8.8-6.7-10.4.5-1.2,1.5-1.4c30.4-7.4,56.6-10.4,86.5-22.5,99.9-40.8,145.6-146.9,264.5-152.5,7-.3,37.7.9,42,5.1s7,11.7,9.7,15.3c7.6,10.1,17.3,19.6,29.9,23.1,7,2,20.3,3.1,25.7-2.8Z"/>
  <path class="st1" d="M900,178c1.1,1-4.5,6.1-5.5,7-2.8,2.7-19.9,17-20.4,18.7-.7,2.5,1.6,5.7,2.4,8.3s1,2.6,1.6,4.4,7.6,19.8,6.8,20.6l-31.4-17.9-29.6,23.8,8.8-35.4c-.5-2.6-23-15.2-26.7-18.2s-2.4-1.6-2.1-3.4l35.1-2.4,10.4-35.5c1.9,0,12.5,30.2,14.5,31.5,4.7,3.2,29.1-3.3,36-1.5Z"/>
  <path class="st0" d="M873,374c-1.4,4.1-2.4,9.4-2.9,13.6s-1.5,10.7-1.1,12.8c1.3,7.1,30.1,21.5,37.3,24.7s40.1,16.5,49.7,12.3,3.1-7,3-10.5c2.7,10.3-.2,16.5-11.5,16-19.7-.8-95.9-29.1-110.9-42.1-2.7-2.3-5.1-5.1-6.6-8.4-5.5-18.8-1.1-38.3-1-57.5,16.3,5.9,30.7,16.7,40.2,31.3,1.9,2.9,2.4,5.2,3.8,7.7Z"/>
  <path class="st2" d="M959,259c-4.2,8-5.2,4-11.8,2.3-65-16.7-168.9,16.8-230.2,42.3-11.1,4.6-21.8,10.4-33,14.5.3-1.3,1.6-2.1,2.7-2.8,26.5-18.2,73.7-37.4,104.6-47.4,51.7-16.8,115.9-30.1,167.8-8.7Z"/>
  <path class="st0" d="M948,273c-21.6-5.1-45.3-5.4-67.2-1.7-3.1.5-9.4,1.7-12,3s-7.1,15.2-9.4,19.6-7.5,12.2-11.9,17.1c-.5.7-.6,1.6-.5,2.4.3,3,17.7,15.5,21.1,19,15.2,15.8,15.8,28.6,12,49.5l-4-21.5c-7.4-24-33.3-32.5-53-44,13.1-12.6,23.3-27.6,27.5-45.5.9-1,19.1-3.5,22.1-3.9,14-1.7,30.9-3,44.9-2.2s26.8,3.1,29.5,5.6.7,1.7,1,2.5Z"/>
  <path class="st0" d="M787,348c4.1,8.4,14,7,22,7,1.9,9.8-6.7,18.8-16.5,16.1-19-5.3-35.9-29.2-26.3-48.4s29.5,6.5,28.3,18.3c-3.3-3.7-15.4-21.7-21.4-17.9-1.3.8-5.8,17.1-3.1,19.9,2.7-1.5,2.9-5.9,7-5-2.4,8.5.5,17.1,9,20.5.8.3,6.6,2.2,7,.5-5.5-1.5-11.3-5.9-11-12,.4-3.1,4.3-1.6,5,1Z"/>
  <path class="st0" d="M950,361c-.9-1.7-1.4-2.1-3.4-2.1-5.8,0-11.9,4.4-18.4,2.4s-3-5.7-3.2-9.3c4.7,2.4,7.7,4,13.3,2.8,2.9-.6,5.4-3.9,9.1-2.7s2.2,6.6,2.6,8.9Z"/>
  <path class="st0" d="M959,394c-1.5,3.5-12.6,1.5-16,2,4,4.3,3.2,4.4,1,9-5.4-.2-11.8,1-16.7-1.8s-1.7,0-1.3-2.2c10.7-4.6,21-8.4,33-7Z"/>
  <path class="st3" d="M787,348l-5-1c.2-4.1,2.5-5.8,4.5-1.9s.3,2.5.5,2.9Z"/>
  <path class="st2" d="M680,320c-1-.5,2-1.9,3-1.5-.9,1.1-1.5,1.8-3,1.5Z"/>
  <path class="st0" d="M959,392l-1-1c0,0,.8.2,1,1Z"/>
  <path class="st3" d="M810,313c-3.2-.4-6,.9-9,1.5s-4,1.4-2.6-.6c13.2-5.3,23.5-14.8,34-24-5.6,12.6-15.7,23.2-27,31l4.5-8Z"/>
  <path class="st4" d="M918,307c-1.4.9-9.8,6.1-10.4,6.1,0-2.4-5.4-1.9-3.6-4s6.8-2.8,6-7c-6.4,1.1-12.7-3.5-18.5-4s-10.2,1.8-15.5,1c-.5-2.7.6-1.7,2-2.4,9.1-4.5,16-5.3,25.5-7.6s3.2-.3,1.5-2-10-2.8-11.5-2.8c-4.5,0-26.3,5.7-27.5,4.8,7.9-8.3,20.5-10.9,30.3-16.8,7.5,1.9,28.6,11,35.1,9.8s6.2-5.5,6.6,6c0,.6,0,1.2-.2,1.7-3,6.4-12.8,17.2-19.8,17.3Z"/>
  <path class="st0" d="M918,307c8.1-5.4,13.6-11.7,20-19,0,.1.8.5.6,2-.5,3.6-4.7,9.1-4.2,12.1,1.2,8,12.3,18.5,14.1,26.9-3.7-2.1-6.8-5.4-10.2-7.8-6.8-4.8-15.1-8.1-20.3-14.2Z"/>
</svg>
